<svg fill="#000000" xmlns="http://www.w3.org/2000/svg"  viewBox="0 0 50 50" width="50px" height="50px"><path d="M 24.8125 0 C 24.472656 0.0625 24.1875 0.300781 24.0625 0.625 L 14.0625 24.625 C 13.9375 24.933594 13.976563 25.285156 14.164063 25.5625 C 14.351563 25.839844 14.664063 26.003906 15 26 L 22.625 26 L 15.15625 48.4375 L 15.0625 48.6875 C 14.898438 49.164063 15.113281 49.6875 15.566406 49.910156 C 16.019531 50.132813 16.566406 49.984375 16.84375 49.5625 L 35.84375 20.5625 C 36.054688 20.253906 36.074219 19.851563 35.898438 19.523438 C 35.71875 19.195313 35.375 18.992188 35 19 L 27.53125 19 L 35.40625 1.40625 C 35.542969 1.097656 35.515625 0.742188 35.332031 0.457031 C 35.148438 0.175781 34.835938 0.00390625 34.5 0 L 25 0 C 24.96875 0 24.9375 0 24.90625 0 C 24.875 0 24.84375 0 24.8125 0 Z M 25.6875 2 L 32.96875 2 L 25.09375 19.59375 C 24.957031 19.902344 24.984375 20.257813 25.167969 20.542969 C 25.351563 20.824219 25.664063 20.996094 26 21 L 33.125 21 L 19.375 42 L 24.9375 25.3125 C 25.035156 25.011719 24.988281 24.679688 24.800781 24.417969 C 24.617188 24.160156 24.320313 24.003906 24 24 L 16.5 24 Z"/></svg>