<svg fill="#000000" xmlns="http://www.w3.org/2000/svg"  viewBox="0 0 50 50" width="50px" height="50px"><path d="M 7 7 C 5.346 7 4 8.346 4 10 L 4 40 C 4 41.654 5.346 43 7 43 L 26.158203 43 C 26.047203 42.686 25.982422 42.351 25.982422 42 C 25.982422 41.649 26.049156 41.314 26.160156 41 L 7 41 C 6.449 41 6 40.552 6 40 L 6 15 L 44 15 L 44 31.132812 C 44.83 31.592813 45.496 32.176609 46 32.849609 L 46 10 C 46 8.346 44.654 7 43 7 L 7 7 z M 7 9 L 43 9 C 43.551 9 44 9.448 44 10 L 44 13 L 6 13 L 6 10 C 6 9.448 6.449 9 7 9 z M 8 10 A 1 1 0 0 0 8 12 A 1 1 0 0 0 8 10 z M 11 10 A 1 1 0 0 0 11 12 A 1 1 0 0 0 11 10 z M 14 10 A 1 1 0 0 0 14 12 A 1 1 0 0 0 14 10 z M 39 30 C 37.721492 30 36.685494 30.99806 36.603516 32.255859 C 36.107111 32.385088 35.619125 32.54581 35.166016 32.775391 C 33.99178 33.370349 32.947266 34.498591 32.947266 36 C 32.947266 36.63792 33.071767 37.277822 33.337891 37.84375 C 33.291425 37.902587 33.246959 37.9637 33.197266 38.017578 A 1.0001 1.0001 0 0 0 33 38 C 33 38 32.275215 37.9935 31.529297 37.527344 C 30.783379 37.061145 30 36.233333 30 34 A 1.0001 1.0001 0 0 0 28.984375 32.986328 A 1.0001 1.0001 0 0 0 28 34 C 28 36.766667 29.216621 38.438855 30.470703 39.222656 C 31.157901 39.652155 31.79447 39.830101 32.28125 39.916016 C 32.199349 40.277617 32.068948 40.593689 32.021484 40.982422 L 29 40.982422 A 1.0181018 1.0181018 0 1 0 29 43.017578 L 32.164062 43.017578 C 32.232306 43.400351 32.315379 43.780157 32.425781 44.152344 C 32.068392 44.191954 31.488099 44.202613 30.53125 44.710938 C 29.31602 45.356527 28 46.769444 28 49 A 1.0001 1.0001 0 1 0 30 49 C 30 47.480556 30.68398 46.893473 31.46875 46.476562 C 32.25352 46.059654 33.0625 45.998047 33.0625 45.998047 A 1.0001 1.0001 0 0 0 33.285156 45.960938 C 33.451494 46.264884 33.537305 46.610155 33.738281 46.892578 C 34.853724 48.460061 36.549664 49.646126 38.666016 49.955078 A 1.0001 1.0001 0 0 0 39.333984 49.955078 C 41.450336 49.646126 43.146276 48.460061 44.261719 46.892578 C 44.467885 46.602862 44.648676 46.296717 44.818359 45.984375 A 1.0001 1.0001 0 0 0 44.9375 45.998047 C 44.9375 45.998047 45.74648 46.059658 46.53125 46.476562 C 47.316019 46.893473 48 47.480556 48 49 A 1.0001 1.0001 0 1 0 50 49 C 50 46.769444 48.68398 45.356527 47.46875 44.710938 C 46.68988 44.297163 46.05139 44.156036 45.599609 44.083984 C 45.700672 43.733713 45.779257 43.377174 45.841797 43.017578 L 49 43.017578 A 1.0181018 1.0181018 0 1 0 49 40.982422 L 45.986328 40.982422 C 45.971838 40.594579 45.934401 40.223934 45.863281 39.884766 C 46.331176 39.784387 46.928707 39.598045 47.529297 39.222656 C 48.783379 38.438855 50 36.766667 50 34 A 1.0001 1.0001 0 0 0 48.984375 32.986328 A 1.0001 1.0001 0 0 0 48 34 C 48 36.233333 47.216621 37.061145 46.470703 37.527344 C 45.724785 37.993543 45 38 45 38 A 1.0001 1.0001 0 0 0 44.992188 38 C 44.905793 37.896745 44.816299 37.799748 44.720703 37.710938 C 44.945683 37.178516 45.052734 36.588481 45.052734 36 C 45.052734 34.498591 44.00822 33.370349 42.833984 32.775391 C 42.380875 32.54581 41.892889 32.385088 41.396484 32.255859 C 41.314506 30.99806 40.278508 30 39 30 z M 39 34.052734 C 40.004077 34.052734 41.126845 34.272255 41.880859 34.654297 C 42.634874 35.036339 42.947266 35.409409 42.947266 36 C 42.947266 36.855477 42.8369 37.107231 42.382812 37.396484 C 41.928727 37.685738 40.850001 37.947266 39 37.947266 C 37.149999 37.947266 36.071274 37.685738 35.617188 37.396484 C 35.1631 37.107231 35.052734 36.855477 35.052734 36 C 35.052734 35.409409 35.365126 35.036339 36.119141 34.654297 C 36.873155 34.272255 37.995923 34.052734 39 34.052734 z M 34.595703 39.234375 C 35.661862 39.868338 37.051138 40.052734 39 40.052734 C 40.948862 40.052734 42.338138 39.868338 43.404297 39.234375 C 43.670271 39.536904 44 40.165226 44 41.259766 C 44 42.858564 43.511934 44.494286 42.630859 45.732422 C 41.962751 46.671285 41.09336 47.383603 40 47.755859 L 40 42 A 1.0001 1.0001 0 0 0 38.984375 40.986328 A 1.0001 1.0001 0 0 0 38 42 L 38 47.755859 C 36.90664 47.383603 36.037249 46.671285 35.369141 45.732422 C 34.488066 44.494286 34 42.858564 34 41.259766 C 34 40.166077 34.32981 39.537134 34.595703 39.234375 z"/></svg>