<?xml version="1.0" encoding="utf-8"?>
<svg width="214px" height="270px" viewbox="0 0 214 270" version="1.1" xmlns:xlink="http://www.w3.org/1999/xlink" xmlns="http://www.w3.org/2000/svg">
  <g id="kucoin-min">
    <g id="Group">
      <path d="M22.5 24.977C10.094 24.977 0 35.07 0 47.477L0 224.523C0 236.93 10.094 247.023 22.5 247.023C34.906 247.023 45 236.93 45 224.523L45 189.319L119.09 263.409C123.339 267.659 128.989 270 135 270C141.011 270 146.661 267.659 150.91 263.41L206.422 207.897C210.672 203.647 213.013 197.997 213.013 191.987C213.013 185.977 210.672 180.326 206.423 176.078C202.174 171.828 196.524 169.487 190.513 169.487C184.503 169.487 178.853 171.828 174.603 176.078L135 215.68L54.319 135L135 54.32L175.019 94.339C179.268 98.589 184.918 100.929 190.928 100.93L190.929 100.93C196.939 100.93 202.589 98.589 206.838 94.34C211.088 90.09 213.429 84.44 213.429 78.43C213.429 72.42 211.088 66.77 206.839 62.52L150.91 6.591C146.661 2.341 141.011 0 135 0C128.989 0 123.339 2.341 119.09 6.59L45 80.68L45 47.476C45 35.07 34.906 24.977 22.5 24.977L22.5 24.977ZM129.697 17.196C131.113 15.78 132.997 15 135 15C137.003 15 138.887 15.78 140.303 17.197L196.233 73.127C197.649 74.544 198.429 76.427 198.429 78.43C198.429 80.433 197.649 82.316 196.232 83.733C194.816 85.15 192.932 85.93 190.928 85.93C188.925 85.93 187.042 85.15 185.626 83.733L140.304 38.411C137.375 35.482 132.627 35.481 129.697 38.411L38.41 129.698C37.004 131.104 36.2141 133.012 36.2141 135.001C36.2141 136.99 37.004 138.898 38.41 140.304L129.697 231.591C132.627 234.52 137.375 234.52 140.304 231.591L185.21 186.685C186.626 185.268 188.51 184.488 190.513 184.488C192.516 184.488 194.4 185.268 195.817 186.686C197.233 188.103 198.013 189.985 198.013 191.989C198.013 193.992 197.233 195.875 195.816 197.292L140.303 252.806C138.887 254.222 137.003 255.002 135 255.002C132.997 255.002 131.113 254.222 129.697 252.805L42.8031 165.911C41.3671 164.476 39.4491 163.714 37.4971 163.714C36.5311 163.714 35.5571 163.901 34.6291 164.285C31.8261 165.446 29.9991 168.181 29.9991 171.214L29.9991 224.524C29.9991 228.66 26.6351 232.024 22.4991 232.024C18.3631 232.024 14.9991 228.66 14.9991 224.524L14.9991 47.4771C14.9991 43.3411 18.3631 39.9771 22.4991 39.9771C26.6351 39.9771 29.9991 43.3411 29.9991 47.4771L29.9991 98.7871C29.9991 101.821 31.826 104.555 34.6291 105.716C37.4331 106.877 40.6561 106.235 42.8031 104.09L129.697 17.196Z" id="Shape" fill="#000000" fill-rule="evenodd" stroke="none" />
      <path d="M0 28.624C0 44.407 12.876 57.248 28.702 57.248C44.528 57.248 57.403 44.407 57.403 28.624C57.403 12.841 44.528 0 28.702 0C12.876 0 0 12.841 0 28.624L0 28.624ZM42.403 28.624C42.403 36.136 36.257 42.248 28.702 42.248C21.146 42.248 15 36.136 15 28.624C15 21.112 21.146 15 28.702 15C36.257 15 42.403 21.112 42.403 28.624L42.403 28.624Z" transform="translate(105.17601 106)" id="Shape" fill="#000000" fill-rule="evenodd" stroke="none" />
    </g>
  </g>
</svg>