<?xml version="1.0" encoding="utf-8"?>
<svg width="536px" height="587px" viewbox="0 0 536 587" version="1.1" xmlns:xlink="http://www.w3.org/1999/xlink" xmlns="http://www.w3.org/2000/svg">
  <g id="layer1">
    <g id="g6382">
      <path d="M49.8883 0C77.4158 0 99.7766 22.3608 99.7766 49.8883L99.7766 437.56C99.7766 465.088 77.4158 487.449 49.8883 487.449C22.3608 487.449 0 465.088 0 437.56L0 49.8883C0.0846939 22.3608 22.3608 0 49.8883 0L49.8883 0Z" transform="translate(0 49.56025)" id="rect6336" fill="#0097E8" fill-rule="evenodd" stroke="none" />
      <path d="M360.865 14.77C380.261 34.3357 380.092 65.9288 360.526 85.2404L84.9124 357.974C65.3467 377.371 33.7536 377.201 14.442 357.636C-4.95433 338.07 -4.78493 306.477 14.7808 287.165L290.395 14.5159C309.96 -4.9651 341.553 -4.79571 360.865 14.77L360.865 14.77Z" transform="translate(11.137421 4.637055)" id="rect6338" fill="#0097E8" fill-rule="evenodd" stroke="none" />
      <path d="M360.865 357.562C380.261 337.996 380.092 306.403 360.526 287.091L84.9124 14.442C65.3467 -4.95433 33.7536 -4.78493 14.442 14.7808C-4.95433 34.3465 -4.78493 65.9396 14.7808 85.2512L290.395 357.901C309.96 377.382 341.553 377.212 360.865 357.562L360.865 357.562Z" transform="translate(11.137421 209.26149)" id="rect6340" fill="#0097E8" fill-rule="evenodd" stroke="none" />
      <path d="M230.225 14.6639C249.622 34.2295 249.537 65.8227 230.056 85.219L85.0496 229.548C65.4839 248.944 33.8908 248.859 14.4944 229.378C-4.90186 209.813 -4.81714 178.22 14.6638 158.823L159.67 14.4944C179.151 -4.90186 210.744 -4.81717 230.225 14.6639L230.225 14.6639Z" transform="translate(292.11954 342.86563)" id="rect6361-4" fill="#0097E8" fill-rule="evenodd" stroke="none" />
      <path d="M230.225 229.378C249.622 209.813 249.537 178.22 230.056 158.823L85.0496 14.4944C65.4839 -4.90185 33.8908 -4.81716 14.4944 14.6638C-4.90186 34.2295 -4.81714 65.8226 14.6638 85.2189L159.67 229.548C179.236 248.944 210.829 248.944 230.225 229.378L230.225 229.378Z" transform="translate(292.11954 0)" id="rect6378" fill="#0097E8" fill-rule="evenodd" stroke="none" />
      <path d="M0 50.3118C0 22.5254 22.5254 0 50.3118 0C78.0982 0 100.624 22.5254 100.624 50.3118C100.624 78.0982 78.0982 100.624 50.3118 100.624C22.5254 100.624 0 78.0982 0 50.3118Z" transform="translate(291.9609 243.18445)" id="path6380" fill="#0097E8" fill-rule="evenodd" stroke="none" />
    </g>
  </g>
</svg>