<?xml version="1.0" encoding="utf-8"?>
<svg width="120px" height="242px" viewbox="0 0 120 242" version="1.1" xmlns:xlink="http://www.w3.org/1999/xlink" xmlns="http://www.w3.org/2000/svg">
  <g id="Group-Copy" transform="matrix(-1 -8.742278E-08 8.742278E-08 -1 119.32852 241.7013)">
    <path d="M0.00130108 55.4136C0.00148958 43.4231 0.00168622 31.9752 0.00189101 21.9629C3.35298 5.54352 16.0855 0.35024 21.7279 0.000139827C32.7061 0.000305752 39.6398 0.000224176 46.1116 0.000148035C51.9328 7.95477e-05 57.3803 1.5457e-05 65.0612 0.000139827C74.9681 0.427535 74.4218 10.6154 73.8464 12.3476C56.7475 48.35 19.9418 129.487 13.4156 144.011C10.9285 150.334 2.2522 150.166 0 144.01C0.000338652 123.62 0.000720971 93.7365 0.00114696 65.4413C0.37817 64.4957 1.00678 63.5141 2.05008 63.0156C3.24911 62.4426 4.65362 62.3727 5.75259 62.4444C5.74633 101.331 5.78879 146.73 5.78879 146.73C5.78879 146.73 61.4969 24.7021 70.0544 5.67511C50.6965 5.536 36.8239 5.45949 22.7656 5.6744C10.6516 6.30602 6.15428 17.244 5.79058 21.714C5.76964 30.2916 5.75881 42.1237 5.7544 55.112L0.00130108 55.4136Z" transform="matrix(-1 8.742278E-08 -8.742278E-08 -1 74.11197 148.69012)" id="New-shape-3-Xor-Difference-Copy" fill="#FECB4E" fill-rule="evenodd" stroke="none" />
    <path d="M0.00130862 51.0998C0.0014761 40.6821 0.00164989 30.7674 0.00182998 21.9628C3.35292 5.54339 16.0855 0.350118 21.7279 1.77571e-05C32.7061 0.000183682 39.6398 0.000102106 46.1116 2.59645e-05C51.9328 -4.25226e-05 57.3804 -0.000106613 65.0613 1.77571e-05C74.9681 0.427413 74.4219 10.6153 73.8465 12.3474C56.7476 48.3499 19.9418 129.487 13.4155 144.01C10.9284 150.333 2.25214 150.166 -6.10352e-05 144.01C0.000277615 123.62 0.000659931 93.7368 0.00108591 65.4418C0.378204 64.4969 1.00666 63.5164 2.04918 63.0182C3.24849 62.4451 4.65338 62.3753 5.75247 62.4471C5.74621 101.333 5.78867 146.73 5.78867 146.73C5.78867 146.73 61.4969 24.702 70.0544 5.67499C50.6965 5.53587 36.8239 5.45937 22.7655 5.67427C10.6515 6.3059 6.15416 17.2439 5.79045 21.7139C5.77178 29.3654 5.76114 39.6065 5.75594 50.9479L0.00130862 51.0998Z" transform="translate(45.21643 93.011475)" id="New-shape-3-Xor-Difference-Copy-2" fill="#FECB4E" fill-rule="evenodd" stroke="none" />
  </g>
</svg>