<?xml version="1.0" encoding="utf-8"?>
<svg width="595px" height="146px" viewbox="0 0 595 146" version="1.1" xmlns:xlink="http://www.w3.org/1999/xlink" xmlns="http://www.w3.org/2000/svg">
  <defs>
    <linearGradient x1="0.058823556" y1="0.25571316" x2="0.9391084" y2="0.70617336" id="gradient_1">
      <stop offset="0" stop-color="#FFDF4D" />
      <stop offset="0.99462366" stop-color="#F55B55" />
    </linearGradient>
  </defs>
  <g fill="url(#gradient_1)" stroke="none" id="Pump-Rider">
    <path d="M385.65 37.496Q384.274 37.496 383.328 36.593Q382.382 35.69 382.382 34.142Q382.382 32.68 383.328 31.734Q384.274 30.788 385.65 30.788Q387.026 30.788 387.972 31.734Q388.918 32.68 388.918 34.142Q388.918 35.69 387.972 36.593Q387.026 37.496 385.65 37.496ZM402.205 58.566Q399.324 63.984 399.324 71.208Q399.324 78.432 402.205 83.893Q405.086 89.354 410.203 92.321Q415.32 95.288 421.856 95.288Q429.252 95.288 434.412 91.633Q439.572 87.978 441.636 82.216L441.636 94.6L445.506 94.6L445.506 30.96L441.636 30.96L441.636 60.114Q439.486 54.438 434.24 50.869Q428.994 47.3 421.856 47.3Q415.32 47.3 410.203 50.224Q405.086 53.148 402.205 58.566ZM102.194 51.256Q102.194 59.254 97.206 63.683Q92.218 68.112 82.414 68.112L69.514 68.112L69.514 94.6L65.644 94.6L65.644 34.228L82.414 34.228Q92.39 34.228 97.292 38.829Q102.194 43.43 102.194 51.256ZM352.54 68.886L368.02 94.6L372.664 94.6L356.84 68.542Q364.322 67.51 368.235 62.995Q372.148 58.48 372.148 51.514Q372.148 43.688 367.117 38.958Q362.086 34.228 352.024 34.228L335.426 34.228L335.426 94.6L339.296 94.6L339.296 68.886L352.54 68.886ZM82.414 64.672Q98.324 64.672 98.324 51.256Q98.324 44.634 94.54 41.151Q90.756 37.668 82.414 37.668L69.514 37.668L69.514 64.672L82.414 64.672ZM352.196 65.618L339.296 65.618L339.296 37.668L352.024 37.668Q368.106 37.668 368.106 51.514Q368.106 57.878 364.15 61.748Q360.194 65.618 352.196 65.618ZM234.462 52.073Q229.388 46.956 221.39 46.956Q215.026 46.956 210.296 50.267Q205.566 53.578 203.932 60.028Q202.212 53.578 197.611 50.267Q193.01 46.956 186.646 46.956Q180.884 46.956 176.455 49.751Q172.026 52.546 170.048 58.05L170.048 47.902L166.178 47.902L166.178 94.6L170.048 94.6L170.048 69.746Q170.048 60.286 174.434 55.298Q178.82 50.31 186.044 50.31Q193.01 50.31 197.009 54.739Q201.008 59.168 201.008 67.51L201.008 94.6L204.792 94.6L204.792 69.746Q204.792 60.286 209.178 55.298Q213.564 50.31 220.788 50.31Q227.754 50.31 231.753 54.739Q235.752 59.168 235.752 67.51L235.752 94.6L239.536 94.6L239.536 67.252Q239.536 57.19 234.462 52.073ZM523.336 49.665Q518.95 52.374 517.23 57.534L517.23 47.902L513.36 47.902L513.36 94.6L517.23 94.6L517.23 67.682Q517.23 58.824 521.788 54.911Q526.346 50.998 533.226 50.998L534.516 50.998L534.516 46.956Q527.722 46.956 523.336 49.665ZM257.166 60.2Q259.144 54.524 264.347 50.912Q269.55 47.3 276.946 47.3Q283.482 47.3 288.599 50.224Q293.716 53.148 296.597 58.566Q299.478 63.984 299.478 71.208Q299.478 78.432 296.597 83.893Q293.716 89.354 288.599 92.321Q283.482 95.288 276.946 95.288Q269.636 95.288 264.433 91.633Q259.23 87.978 257.166 82.388L257.166 116.616L253.296 116.616L253.296 47.902L257.166 47.902L257.166 60.2ZM501.664 68.112Q501.664 71.208 501.492 72.756L461.158 72.756Q461.33 79.034 463.91 83.334Q466.49 87.634 470.704 89.784Q474.918 91.934 479.906 91.934Q486.786 91.934 491.43 88.537Q496.074 85.14 497.278 79.292L501.32 79.292Q499.944 86.43 494.268 90.859Q488.592 95.288 479.906 95.288Q473.37 95.288 468.21 92.364Q463.05 89.44 460.126 83.979Q457.202 78.518 457.202 71.208Q457.202 63.898 460.083 58.48Q462.964 53.062 468.124 50.181Q473.284 47.3 479.906 47.3Q486.614 47.3 491.559 50.181Q496.504 53.062 499.084 57.835Q501.664 62.608 501.664 68.112ZM152.074 47.902L152.074 94.6L148.204 94.6L148.204 84.452Q146.226 89.784 141.625 92.579Q137.024 95.374 131.09 95.374Q122.748 95.374 117.459 90.257Q112.17 85.14 112.17 75.078L112.17 47.902L115.954 47.902L115.954 74.82Q115.954 83.162 120.168 87.591Q124.382 92.02 131.606 92.02Q139.174 92.02 143.689 87.204Q148.204 82.388 148.204 72.928L148.204 47.902L152.074 47.902ZM387.542 47.902L387.542 94.6L383.672 94.6L383.672 47.902L387.542 47.902ZM497.794 69.574Q498.052 63.382 495.601 59.082Q493.15 54.782 488.936 52.675Q484.722 50.568 479.82 50.568Q474.918 50.568 470.747 52.675Q466.576 54.782 463.953 59.082Q461.33 63.382 461.158 69.574L497.794 69.574ZM295.522 71.208Q295.522 64.844 293.114 60.2Q290.706 55.556 286.363 53.105Q282.02 50.654 276.344 50.654Q270.926 50.654 266.54 53.191Q262.154 55.728 259.66 60.415Q257.166 65.102 257.166 71.208Q257.166 77.4 259.66 82.087Q262.154 86.774 266.54 89.311Q270.926 91.848 276.344 91.848Q282.02 91.848 286.363 89.354Q290.706 86.86 293.114 82.216Q295.522 77.572 295.522 71.208ZM439.099 60.415Q441.636 65.102 441.636 71.208Q441.636 77.4 439.142 82.087Q436.648 86.774 432.219 89.311Q427.79 91.848 422.372 91.848Q416.782 91.848 412.439 89.354Q408.096 86.86 405.688 82.216Q403.28 77.572 403.28 71.208Q403.28 64.844 405.688 60.2Q408.096 55.556 412.396 53.105Q416.696 50.654 422.372 50.654Q427.79 50.654 432.176 53.191Q436.562 55.728 439.099 60.415Z" />
  </g>
</svg>