<svg fill="#000000" xmlns="http://www.w3.org/2000/svg"  viewBox="0 0 50 50" width="50px" height="50px"><path d="M 25 3 C 12.863281 3 3 12.863281 3 25 C 3 37.136719 12.863281 47 25 47 C 37.136719 47 47 37.136719 47 25 C 47 12.863281 37.136719 3 25 3 Z M 25 5 C 30.171875 5 34.859375 6.972656 38.40625 10.1875 L 35.59375 13 C 32.773438 10.511719 29.058594 9 25 9 C 20.761719 9 17.003906 10.617188 14.15625 13.25 C 13.796875 13.097656 13.410156 13 13 13 C 11.355469 13 10 14.355469 10 16 C 10 16.71875 10.257813 17.386719 10.6875 17.90625 C 9.570313 20.046875 9 22.441406 9 25 C 9 32.890625 14.683594 39.378906 22.09375 40.6875 C 22.410156 42 23.59375 43 25 43 C 26.414063 43 27.597656 41.984375 27.90625 40.65625 C 35.363281 39.316406 41 32.859375 41 25 C 41 20.941406 39.488281 17.226563 37 14.40625 L 39.8125 11.59375 C 43.027344 15.140625 45 19.828125 45 25 C 45 36.058594 36.058594 45 25 45 C 13.941406 45 5 36.058594 5 25 C 5 13.941406 13.941406 5 25 5 Z M 25 11 C 28.523438 11 31.703125 12.308594 34.15625 14.4375 L 31.34375 17.28125 C 31.335938 17.277344 31.320313 17.285156 31.3125 17.28125 C 29.585938 15.863281 27.402344 15 25 15 C 19.488281 15 15 19.488281 15 25 C 15 30.511719 19.488281 35 25 35 C 27.785156 35 30.308594 33.847656 32.125 32 C 33.171875 31.933594 34 31.0625 34 30 C 34 29.816406 33.984375 29.636719 33.9375 29.46875 C 34.617188 28.121094 35 26.609375 35 25 C 35 22.597656 34.136719 20.414063 32.71875 18.6875 C 32.714844 18.679688 32.722656 18.664063 32.71875 18.65625 L 35.5625 15.84375 C 37.691406 18.296875 39 21.476563 39 25 C 39 31.851563 34.144531 37.457031 27.6875 38.6875 C 27.195313 37.691406 26.175781 37 25 37 C 23.816406 37 22.796875 37.710938 22.3125 38.71875 C 15.902344 37.527344 11 31.886719 11 25 C 11 22.769531 11.484375 20.75 12.40625 18.9375 C 12.601563 18.976563 12.792969 19 13 19 C 14.644531 19 16 17.644531 16 16 C 16 15.492188 15.851563 15.015625 15.625 14.59375 C 18.109375 12.347656 21.328125 11 25 11 Z M 13 15 C 13.5625 15 14 15.4375 14 16 C 14 16.5625 13.5625 17 13 17 C 12.4375 17 12 16.5625 12 16 C 12 15.4375 12.4375 15 13 15 Z M 25 17 C 26.855469 17 28.550781 17.632813 29.90625 18.6875 L 26.28125 22.3125 C 25.890625 22.125 25.460938 22 25 22 C 23.355469 22 22 23.355469 22 25 C 22 26.644531 23.355469 28 25 28 C 26.644531 28 28 26.644531 28 25 C 28 24.539063 27.875 24.109375 27.6875 23.71875 L 31.3125 20.09375 C 32.367188 21.449219 33 23.144531 33 25 C 33 26.074219 32.785156 27.097656 32.40625 28.03125 C 32.277344 28.003906 32.136719 28 32 28 C 30.894531 28 30 28.894531 30 30 C 30 30.363281 30.109375 30.707031 30.28125 31 C 28.871094 32.242188 27.03125 33 25 33 C 20.570313 33 17 29.429688 17 25 C 17 20.570313 20.570313 17 25 17 Z M 25 24 C 25.5625 24 26 24.4375 26 25 C 26 25.5625 25.5625 26 25 26 C 24.4375 26 24 25.5625 24 25 C 24 24.4375 24.4375 24 25 24 Z M 25 39 C 25.5625 39 26 39.4375 26 40 C 26 40.5625 25.5625 41 25 41 C 24.4375 41 24 40.5625 24 40 C 24 39.4375 24.4375 39 25 39 Z"/></svg>