<?xml version="1.0" encoding="utf-8"?>
<svg width="158px" height="253px" viewbox="0 0 158 253" version="1.1" xmlns:xlink="http://www.w3.org/1999/xlink" xmlns="http://www.w3.org/2000/svg">
  <g id="New-group" transform="translate(5.5 5.5000076)">
    <path d="M0 41L18 0L57 0L35 41L0 41Z" transform="translate(37 200.53967)" id="New-shape" fill="none" fill-rule="evenodd" stroke="#FFFFFF" stroke-width="11" />
    <path d="M0 130.54C28.7991 130.219 21.7219 130.18 41 130.54C44.9113 163.579 91.0441 155.376 100.5 142.54C108.866 131.183 102.979 114.489 76.5 110.54C36.4953 109.7 4.22116 89.9628 3.98077 57.4052C3.74039 24.8474 28.6251 0.981971 75.0577 0.0204378C121.49 -0.941095 145.683 32.2417 143.558 53.7993C118.356 53.7225 121.928 54.3066 104.538 54.0397C103.255 48.0037 104.892 38.5105 86.7404 32.5397C72.4351 31.6169 50.6827 28.916 46.3558 50.3488C46.3558 62.1661 49.5193 71.3382 86.2597 74.0398C96.0769 76.0202 144.76 76.559 146.202 128.463C147.644 180.367 86.2596 186.04 86.2596 186.04C86.2596 186.04 11.3761 195.999 0 130.54Z" id="New-shape" fill="none" fill-rule="evenodd" stroke="#FFFFFF" stroke-width="11" />
  </g>
</svg>