<?xml version="1.0" encoding="utf-8"?>
<svg width="512px" height="512px" viewbox="0 0 512 512" version="1.1" xmlns:xlink="http://www.w3.org/1999/xlink" xmlns="http://www.w3.org/2000/svg">
  <defs>
    <path d="M0 0L512 0L512 512L0 512L0 0Z" id="path_1" />
    <clipPath id="mask_1">
      <use xlink:href="#path_1" />
    </clipPath>
  </defs>
  <g id="tether">
    <path d="M0 0L512 0L512 512L0 512L0 0Z" id="Background" fill="none" fill-rule="evenodd" stroke="none" />
    <g clip-path="url(#mask_1)">
      <path d="M38.3627 139.24C33.8118 137.009 28.3143 138.887 26.0819 143.432C-1.44826 199.49 -7.41416 263.664 9.2789 324.134C26.101 385.072 64.7216 437.422 118.028 471.531C159.746 498.227 207.177 512.005 255.544 512C273.954 512 292.511 510.002 310.925 505.964C377.721 491.311 434.808 451.53 471.679 393.947C547.783 275.086 512.972 116.482 394.075 40.3944C341.706 6.88342 279.05 -6.42635 217.65 2.90721C156.825 12.1595 101.416 42.87 61.6335 89.3897C53.9419 98.3839 67.891 110.303 75.5826 101.313C112.501 58.1392 163.938 29.6319 220.414 21.0486C277.4 12.3842 335.568 24.7429 384.18 55.85C437.648 90.0635 474.586 143.049 488.191 205.039C501.801 267.029 490.447 330.605 456.22 384.059C421.997 437.508 369.002 474.441 306.991 488.042C244.98 501.644 181.391 490.298 127.923 456.08C26.015 390.864 -10.6839 259.932 42.5551 151.518C44.7875 146.968 42.9136 141.472 38.3627 139.24L38.3627 139.24Z" transform="translate(3.0517578E-05 0)" id="Shape" fill="#000000" fill-rule="evenodd" stroke="none" />
      <path d="M45.9776 92.7861C14.6088 99.0945 0 107.912 0 120.533C0 133.155 14.6088 141.968 45.9776 148.281C69.258 152.969 99.4652 155.722 131.819 156.162L131.819 269.015C131.819 280.853 150.175 280.853 150.175 269.015L150.175 156.162C182.529 155.722 212.736 152.969 236.016 148.281C267.385 141.973 281.994 133.155 281.994 120.533C281.994 107.917 267.385 99.0993 236.016 92.7861C212.736 88.1026 182.529 85.345 150.175 84.9054L150.175 18.3469L254.344 18.3469C266.181 18.3469 266.181 0 254.344 0L27.6497 0C15.8135 0 15.8135 18.3469 27.6497 18.3469L131.819 18.3469L131.819 84.9054C99.4652 85.345 69.258 88.0978 45.9776 92.7861L45.9776 92.7861ZM55.5862 131.425C33.8307 127.578 23.6103 123.1 19.7621 120.533C23.6103 117.962 33.8307 113.489 55.5862 109.642C76.8301 105.881 103.615 103.654 131.819 103.257L131.819 137.81C103.615 137.408 76.8301 135.181 55.5862 131.425L55.5862 131.425ZM226.408 109.642C248.163 113.489 258.384 117.967 262.232 120.533C258.384 123.1 248.163 127.578 226.408 131.425C205.164 135.181 178.38 137.408 150.175 137.81L150.175 103.257C178.38 103.654 205.164 105.881 226.408 109.642L226.408 109.642Z" transform="translate(114.36102 130.70493)" id="Shape" fill="#000000" fill-rule="evenodd" stroke="none" />
    </g>
  </g>
</svg>